<?xml version="1.0" standalone="no"?>
<!DOCTYPE svg PUBLIC "-//W3C//DTD SVG 20010904//EN"
 "http://www.w3.org/TR/2001/REC-SVG-20010904/DTD/svg10.dtd">
<svg version="1.0" xmlns="http://www.w3.org/2000/svg"
 width="831.000000pt" height="831.000000pt" viewBox="0 0 831.000000 831.000000"
 preserveAspectRatio="xMidYMid meet">
<metadata>
Created by potrace 1.14, written by Peter Selinger 2001-2017
</metadata>
<g transform="translate(0.000000,831.000000) scale(0.100000,-0.100000)"
fill="#000000" stroke="none">
<path d="M3929 7996 c-2 -2 -47 -7 -99 -10 -52 -4 -102 -9 -110 -11 -8 -2 -40
-6 -70 -10 -70 -7 -216 -32 -296 -50 -34 -8 -73 -16 -85 -19 -226 -48 -535
-159 -794 -286 -397 -193 -710 -416 -1026 -730 -121 -120 -186 -191 -297 -326
-103 -125 -299 -419 -371 -559 -18 -33 -36 -67 -41 -75 -14 -20 -130 -268
-130 -276 0 -3 -6 -20 -14 -37 -110 -250 -212 -633 -251 -947 -4 -30 -9 -62
-10 -71 -20 -105 -28 -607 -12 -764 7 -77 9 -95 22 -195 74 -593 324 -1219
692 -1732 37 -50 74 -101 84 -112 9 -12 52 -64 95 -116 159 -193 413 -433 634
-599 52 -39 100 -74 105 -79 6 -4 35 -24 65 -43 376 -246 762 -419 1169 -525
130 -33 345 -76 446 -88 28 -4 66 -8 85 -11 125 -15 223 -20 440 -20 241 0
364 7 522 30 24 4 59 9 78 11 19 3 80 14 135 25 55 11 111 23 125 25 14 3 50
12 80 20 30 8 64 17 76 19 71 16 426 137 448 154 6 4 34 16 61 26 28 10 113
50 190 88 845 421 1507 1140 1860 2017 42 104 102 275 96 275 -1 0 3 14 9 30
7 17 16 44 20 60 5 17 17 64 29 105 11 41 23 90 26 109 3 19 8 37 10 40 2 4 6
26 10 51 4 25 8 47 10 50 3 4 17 102 40 265 15 108 20 220 20 440 0 295 -8
394 -50 650 -84 500 -270 986 -542 1413 -48 75 -92 142 -98 149 -5 6 -21 28
-35 48 -46 67 -149 195 -235 294 -75 88 -311 317 -410 400 -104 86 -321 248
-365 271 -14 7 -27 16 -30 19 -14 18 -310 186 -380 216 -19 9 -46 22 -60 29
-98 53 -375 157 -578 217 -126 36 -373 91 -472 104 -25 3 -54 8 -65 9 -11 2
-49 7 -85 11 -36 4 -81 9 -100 12 -41 5 -566 14 -571 9z"/>
</g>
</svg>
